# Blender v2.78 (sub 0) OBJ File: 'rushes.blend'
# www.blender.org
mtllib rushes.mtl
o Plane
v 0.084714 0.114564 0.129668
v 0.084714 -0.014389 0.129668
v 0.054999 0.114564 -0.025545
v 0.054999 -0.014389 -0.025545
v 0.084714 0.114564 0.129668
v 0.084714 -0.014389 0.129668
v 0.054999 0.114564 -0.025545
v 0.054999 -0.014389 -0.025545
v -0.017453 0.114564 0.080816
v -0.017453 -0.014389 0.080816
v -0.014592 0.114564 -0.074621
v -0.014592 -0.014389 -0.074621
v -0.017453 0.114564 0.080816
v -0.017453 -0.014389 0.080816
v -0.014592 0.114564 -0.074621
v -0.014592 -0.014389 -0.074621
v -0.019275 0.114564 0.064260
v -0.019275 -0.014389 0.064260
v -0.089156 0.114564 0.203133
v -0.089156 -0.014389 0.203133
v -0.019275 0.114564 0.064260
v -0.019275 -0.014389 0.064260
v -0.089156 0.114564 0.203133
v -0.089156 -0.014389 0.203133
v -0.166379 0.114564 -0.120155
v -0.166379 -0.014389 -0.120155
v -0.059083 0.114564 -0.007655
v -0.059083 -0.014389 -0.007655
v -0.166379 0.114564 -0.120155
v -0.166379 -0.014389 -0.120155
v -0.059083 0.114564 -0.007655
v -0.059083 -0.014389 -0.007655
v -0.048429 0.114564 -0.003741
v -0.048429 -0.014389 -0.003741
v -0.135672 0.114564 0.124935
v -0.135672 -0.014389 0.124935
v -0.048429 0.114564 -0.003741
v -0.048429 -0.014389 -0.003741
v -0.135672 0.114564 0.124935
v -0.135672 -0.014389 0.124935
v 0.059186 0.114564 0.173476
v 0.059186 -0.014389 0.173476
v -0.069594 0.114564 0.086386
v -0.069594 -0.014389 0.086386
v 0.059186 0.114564 0.173476
v 0.059186 -0.014389 0.173476
v -0.069594 0.114564 0.086386
v -0.069594 -0.014389 0.086386
v -0.139557 0.114564 -0.069371
v -0.139557 -0.014389 -0.069371
v -0.148306 0.114564 0.085847
v -0.148306 -0.014389 0.085847
v -0.139557 0.114564 -0.069371
v -0.139557 -0.014389 -0.069371
v -0.148306 0.114564 0.085847
v -0.148306 -0.014389 0.085847
v -0.061157 0.114564 -0.115333
v -0.061157 -0.014389 -0.115333
v 0.091035 0.114564 -0.083604
v 0.091035 -0.014389 -0.083604
v -0.061157 0.114564 -0.115333
v -0.061157 -0.014389 -0.115333
v 0.091035 0.114564 -0.083604
v 0.091035 -0.014389 -0.083604
v 0.076377 0.114564 0.026220
v 0.076377 -0.014389 0.026220
v 0.198679 0.114564 -0.069754
v 0.198679 -0.014389 -0.069754
v 0.076377 0.114564 0.026220
v 0.076377 -0.014389 0.026220
v 0.198679 0.114564 -0.069754
v 0.198679 -0.014389 -0.069754
v -0.209094 0.114564 0.050618
v -0.209094 -0.014389 0.050618
v -0.078768 0.114564 -0.034142
v -0.078769 -0.014389 -0.034142
v -0.209094 0.114564 0.050618
v -0.209094 -0.014389 0.050618
v -0.078768 0.114564 -0.034142
v -0.078769 -0.014389 -0.034142
v -0.198054 0.114564 -0.047556
v -0.198054 -0.014389 -0.047556
v -0.089809 0.114564 0.064032
v -0.089809 -0.014389 0.064032
v -0.198054 0.114564 -0.047556
v -0.198054 -0.014389 -0.047556
v -0.089809 0.114564 0.064032
v -0.089809 -0.014389 0.064032
v -0.183126 0.114564 -0.030938
v -0.183126 -0.014389 -0.030938
v -0.042336 0.114564 -0.096872
v -0.042336 -0.014389 -0.096872
v -0.183126 0.114564 -0.030938
v -0.183126 -0.014389 -0.030938
v -0.042336 0.114564 -0.096872
v -0.042336 -0.014389 -0.096872
v -0.098842 0.114564 0.070051
v -0.098842 -0.014389 0.070051
v -0.009590 0.114564 0.197342
v -0.009590 -0.014389 0.197342
v -0.098842 0.114564 0.070051
v -0.098842 -0.014389 0.070051
v -0.009590 0.114564 0.197342
v -0.009590 -0.014389 0.197342
v 0.024847 0.114564 0.069473
v 0.024847 -0.014389 0.069473
v -0.056062 0.114564 -0.063277
v -0.056062 -0.014389 -0.063277
v 0.024847 0.114564 0.069473
v 0.024847 -0.014389 0.069473
v -0.056062 0.114564 -0.063277
v -0.056062 -0.014389 -0.063277
v -0.055489 0.114564 0.069819
v -0.055489 -0.014389 0.069819
v 0.024274 0.114564 -0.063623
v 0.024274 -0.014389 -0.063623
v -0.055489 0.114564 0.069819
v -0.055489 -0.014389 0.069819
v 0.024274 0.114564 -0.063623
v 0.024274 -0.014389 -0.063623
v -0.106005 0.114564 -0.015872
v -0.106005 -0.014389 -0.015872
v -0.078096 0.114564 0.137066
v -0.078096 -0.014389 0.137066
v -0.106005 0.114564 -0.015872
v -0.106005 -0.014389 -0.015872
v -0.078096 0.114564 0.137066
v -0.078096 -0.014389 0.137066
v -0.018208 0.114564 0.053295
v -0.018208 -0.014389 0.053295
v 0.007800 0.114564 0.206567
v 0.007800 -0.014389 0.206567
v -0.018208 0.114564 0.053295
v -0.018208 -0.014389 0.053295
v 0.007800 0.114564 0.206567
v 0.007800 -0.014389 0.206567
v 0.065873 0.114564 0.098462
v 0.065873 -0.014389 0.098462
v -0.076281 0.114564 0.161400
v -0.076281 -0.014389 0.161400
v 0.065873 0.114564 0.098462
v 0.065873 -0.014389 0.098462
v -0.076281 0.114564 0.161400
v -0.076281 -0.014389 0.161400
v 0.107967 0.114564 -0.017156
v 0.107967 -0.014389 -0.017156
v 0.031747 0.114564 0.121279
v 0.031747 -0.014389 0.121279
v 0.107967 0.114564 -0.017156
v 0.107967 -0.014389 -0.017156
v 0.031747 0.114564 0.121279
v 0.031747 -0.014389 0.121279
v 0.001619 0.114564 0.012224
v 0.001619 -0.014389 0.012224
v 0.138095 0.114564 0.091899
v 0.138095 -0.014389 0.091899
v 0.001619 0.114564 0.012224
v 0.001619 -0.014389 0.012224
v 0.138095 0.114564 0.091899
v 0.138095 -0.014389 0.091899
v 0.015275 0.114564 -0.021737
v 0.015275 -0.014389 -0.021737
v 0.015433 0.114564 -0.177200
v 0.015433 -0.014389 -0.177200
v 0.015275 0.114564 -0.021737
v 0.015275 -0.014389 -0.021737
v 0.015433 0.114564 -0.177200
v 0.015433 -0.014389 -0.177200
v -0.061418 0.114564 -0.087288
v -0.061417 -0.014389 -0.087288
v 0.092125 0.114564 -0.111649
v 0.092125 -0.014389 -0.111649
v -0.061418 0.114564 -0.087288
v -0.061417 -0.014389 -0.087288
v 0.092125 0.114564 -0.111649
v 0.092125 -0.014389 -0.111649
v 0.047119 0.114564 -0.028524
v 0.047119 -0.014389 -0.028524
v -0.016412 0.114564 -0.170413
v -0.016412 -0.014389 -0.170413
v 0.047119 0.114564 -0.028524
v 0.047119 -0.014389 -0.028524
v -0.016412 0.114564 -0.170413
v -0.016412 -0.014389 -0.170413
v 0.154059 0.114564 0.054187
v 0.154060 -0.014389 0.054187
v 0.120997 0.114564 -0.097720
v 0.120997 -0.014389 -0.097720
v 0.154059 0.114564 0.054187
v 0.154060 -0.014389 0.054187
v 0.120997 0.114564 -0.097720
v 0.120997 -0.014389 -0.097720
vt 0.0178 0.9934
vt 0.9926 0.9934
vt 0.9926 0.0017
vt 0.0178 0.0017
vt 0.0178 0.9934
vt 0.0178 0.0017
vt 0.9926 0.0017
vt 0.9926 0.9934
vt 0.0178 0.9934
vt 0.9926 0.9934
vt 0.9926 0.0017
vt 0.0178 0.0017
vt 0.0178 0.9934
vt 0.0178 0.0017
vt 0.9926 0.0017
vt 0.9926 0.9934
vt 0.0178 0.9934
vt 0.9926 0.9934
vt 0.9926 0.0017
vt 0.0178 0.0017
vt 0.0178 0.9934
vt 0.0178 0.0017
vt 0.9926 0.0017
vt 0.9926 0.9934
vt 0.0178 0.9934
vt 0.9926 0.9934
vt 0.9926 0.0017
vt 0.0178 0.0017
vt 0.0178 0.9934
vt 0.0178 0.0017
vt 0.9926 0.0017
vt 0.9926 0.9934
vt 0.0178 0.9934
vt 0.9926 0.9934
vt 0.9926 0.0017
vt 0.0178 0.0017
vt 0.0178 0.9934
vt 0.0178 0.0017
vt 0.9926 0.0017
vt 0.9926 0.9934
vt 0.0178 0.9934
vt 0.9926 0.9934
vt 0.9926 0.0017
vt 0.0178 0.0017
vt 0.0178 0.9934
vt 0.0178 0.0017
vt 0.9926 0.0017
vt 0.9926 0.9934
vt 0.0178 0.9934
vt 0.9926 0.9934
vt 0.9926 0.0017
vt 0.0178 0.0017
vt 0.0178 0.9934
vt 0.0178 0.0017
vt 0.9926 0.0017
vt 0.9926 0.9934
vt 0.0178 0.9934
vt 0.9926 0.9934
vt 0.9926 0.0017
vt 0.0178 0.0017
vt 0.0178 0.9934
vt 0.0178 0.0017
vt 0.9926 0.0017
vt 0.9926 0.9934
vt 0.0178 0.9934
vt 0.9926 0.9934
vt 0.9926 0.0017
vt 0.0178 0.0017
vt 0.0178 0.9934
vt 0.0178 0.0017
vt 0.9926 0.0017
vt 0.9926 0.9934
vt 0.0178 0.9934
vt 0.9926 0.9934
vt 0.9926 0.0017
vt 0.0178 0.0017
vt 0.0178 0.9934
vt 0.0178 0.0017
vt 0.9926 0.0017
vt 0.9926 0.9934
vt 0.0178 0.9934
vt 0.9926 0.9934
vt 0.9926 0.0017
vt 0.0178 0.0017
vt 0.0178 0.9934
vt 0.0178 0.0017
vt 0.9926 0.0017
vt 0.9926 0.9934
vt 0.0178 0.9934
vt 0.9926 0.9934
vt 0.9926 0.0017
vt 0.0178 0.0017
vt 0.0178 0.9934
vt 0.0178 0.0017
vt 0.9926 0.0017
vt 0.9926 0.9934
vt 0.0178 0.9934
vt 0.9926 0.9934
vt 0.9926 0.0017
vt 0.0178 0.0017
vt 0.0178 0.9934
vt 0.0178 0.0017
vt 0.9926 0.0017
vt 0.9926 0.9934
vt 0.0178 0.9934
vt 0.9926 0.9934
vt 0.9926 0.0017
vt 0.0178 0.0017
vt 0.0178 0.9934
vt 0.0178 0.0017
vt 0.9926 0.0017
vt 0.9926 0.9934
vt 0.0178 0.9934
vt 0.9926 0.9934
vt 0.9926 0.0017
vt 0.0178 0.0017
vt 0.0178 0.9934
vt 0.0178 0.0017
vt 0.9926 0.0017
vt 0.9926 0.9934
vt 0.0178 0.9934
vt 0.9926 0.9934
vt 0.9926 0.0017
vt 0.0178 0.0017
vt 0.0178 0.9934
vt 0.0178 0.0017
vt 0.9926 0.0017
vt 0.9926 0.9934
vt 0.0178 0.9934
vt 0.9926 0.9934
vt 0.9926 0.0017
vt 0.0178 0.0017
vt 0.0178 0.9934
vt 0.0178 0.0017
vt 0.9926 0.0017
vt 0.9926 0.9934
vt 0.0178 0.9934
vt 0.9926 0.9934
vt 0.9926 0.0017
vt 0.0178 0.0017
vt 0.0178 0.9934
vt 0.0178 0.0017
vt 0.9926 0.0017
vt 0.9926 0.9934
vt 0.0178 0.9934
vt 0.9926 0.9934
vt 0.9926 0.0017
vt 0.0178 0.0017
vt 0.0178 0.9934
vt 0.0178 0.0017
vt 0.9926 0.0017
vt 0.9926 0.9934
vt 0.0178 0.9934
vt 0.9926 0.9934
vt 0.9926 0.0017
vt 0.0178 0.0017
vt 0.0178 0.9934
vt 0.0178 0.0017
vt 0.9926 0.0017
vt 0.9926 0.9934
vt 0.0178 0.9934
vt 0.9926 0.9934
vt 0.9926 0.0017
vt 0.0178 0.0017
vt 0.0178 0.9934
vt 0.0178 0.0017
vt 0.9926 0.0017
vt 0.9926 0.9934
vt 0.0178 0.9934
vt 0.9926 0.9934
vt 0.9926 0.0017
vt 0.0178 0.0017
vt 0.0178 0.9934
vt 0.0178 0.0017
vt 0.9926 0.0017
vt 0.9926 0.9934
vt 0.0178 0.9934
vt 0.9926 0.9934
vt 0.9926 0.0017
vt 0.0178 0.0017
vt 0.0178 0.9934
vt 0.0178 0.0017
vt 0.9926 0.0017
vt 0.9926 0.9934
vt 0.0178 0.9934
vt 0.9926 0.9934
vt 0.9926 0.0017
vt 0.0178 0.0017
vt 0.0178 0.9934
vt 0.0178 0.0017
vt 0.9926 0.0017
vt 0.9926 0.9934
vn -0.9822 -0.0000 0.1880
vn 0.9822 0.0000 -0.1880
vn -0.9998 -0.0000 -0.0184
vn 0.9998 0.0000 0.0184
vn 0.8933 0.0000 0.4495
vn -0.8933 -0.0000 -0.4495
vn 0.7236 -0.0000 -0.6902
vn -0.7236 0.0000 0.6902
vn 0.8277 0.0000 0.5612
vn -0.8277 -0.0000 -0.5612
vn -0.5602 -0.0000 0.8284
vn 0.5602 0.0000 -0.8284
vn 0.9984 -0.0000 0.0563
vn -0.9984 0.0000 -0.0563
vn 0.2041 -0.0000 -0.9790
vn -0.2041 0.0000 0.9790
vn -0.6173 -0.0000 -0.7867
vn 0.6173 0.0000 0.7867
vn -0.5452 0.0000 -0.8383
vn 0.5452 -0.0000 0.8383
vn 0.7178 -0.0000 -0.6963
vn -0.7178 0.0000 0.6963
vn -0.4241 -0.0000 -0.9056
vn 0.4241 0.0000 0.9056
vn 0.8188 0.0000 -0.5741
vn -0.8188 -0.0000 0.5741
vn -0.8539 -0.0000 0.5204
vn 0.8539 0.0000 -0.5204
vn -0.8584 0.0000 -0.5131
vn 0.8584 -0.0000 0.5131
vn 0.9838 -0.0000 -0.1795
vn -0.9838 0.0000 0.1795
vn 0.9859 -0.0000 -0.1673
vn -0.9859 0.0000 0.1673
vn 0.4048 0.0000 0.9144
vn -0.4048 -0.0000 -0.9144
vn 0.8760 0.0000 0.4823
vn -0.8760 -0.0000 -0.4823
vn 0.5042 0.0000 -0.8636
vn -0.5042 -0.0000 0.8636
vn -1.0000 0.0000 -0.0010
vn 1.0000 -0.0000 0.0010
vn -0.1567 -0.0000 -0.9876
vn 0.1567 0.0000 0.9876
vn -0.9127 -0.0000 0.4087
vn 0.9127 0.0000 -0.4087
vn -0.9771 -0.0000 0.2127
vn 0.9771 0.0000 -0.2127
usemtl None
s off
f 1/1/1 3/2/1 4/3/1 2/4/1
f 5/5/2 6/6/2 8/7/2 7/8/2
f 9/9/3 11/10/3 12/11/3 10/12/3
f 13/13/4 14/14/4 16/15/4 15/16/4
f 17/17/5 19/18/5 20/19/5 18/20/5
f 21/21/6 22/22/6 24/23/6 23/24/6
f 25/25/7 27/26/7 28/27/7 26/28/7
f 29/29/8 30/30/8 32/31/8 31/32/8
f 33/33/9 35/34/9 36/35/9 34/36/9
f 37/37/10 38/38/10 40/39/10 39/40/10
f 41/41/11 43/42/11 44/43/11 42/44/11
f 45/45/12 46/46/12 48/47/12 47/48/12
f 49/49/13 51/50/13 52/51/13 50/52/13
f 53/53/14 54/54/14 56/55/14 55/56/14
f 57/57/15 59/58/15 60/59/15 58/60/15
f 61/61/16 62/62/16 64/63/16 63/64/16
f 65/65/17 67/66/17 68/67/17 66/68/17
f 69/69/18 70/70/18 72/71/18 71/72/18
f 73/73/19 75/74/19 76/75/19 74/76/19
f 77/77/20 78/78/20 80/79/20 79/80/20
f 81/81/21 83/82/21 84/83/21 82/84/21
f 85/85/22 86/86/22 88/87/22 87/88/22
f 89/89/23 91/90/23 92/91/23 90/92/23
f 93/93/24 94/94/24 96/95/24 95/96/24
f 97/97/25 99/98/25 100/99/25 98/100/25
f 101/101/26 102/102/26 104/103/26 103/104/26
f 105/105/27 107/106/27 108/107/27 106/108/27
f 109/109/28 110/110/28 112/111/28 111/112/28
f 113/113/29 115/114/29 116/115/29 114/116/29
f 117/117/30 118/118/30 120/119/30 119/120/30
f 121/121/31 123/122/31 124/123/31 122/124/31
f 125/125/32 126/126/32 128/127/32 127/128/32
f 129/129/33 131/130/33 132/131/33 130/132/33
f 133/133/34 134/134/34 136/135/34 135/136/34
f 137/137/35 139/138/35 140/139/35 138/140/35
f 141/141/36 142/142/36 144/143/36 143/144/36
f 145/145/37 147/146/37 148/147/37 146/148/37
f 149/149/38 150/150/38 152/151/38 151/152/38
f 153/153/39 155/154/39 156/155/39 154/156/39
f 157/157/40 158/158/40 160/159/40 159/160/40
f 161/161/41 163/162/41 164/163/41 162/164/41
f 165/165/42 166/166/42 168/167/42 167/168/42
f 169/169/43 171/170/43 172/171/43 170/172/43
f 173/173/44 174/174/44 176/175/44 175/176/44
f 177/177/45 179/178/45 180/179/45 178/180/45
f 181/181/46 182/182/46 184/183/46 183/184/46
f 185/185/47 187/186/47 188/187/47 186/188/47
f 189/189/48 190/190/48 192/191/48 191/192/48
