# Blender v2.78 (sub 0) OBJ File: 'House.blend'
# www.blender.org
mtllib House.mtl
o Plane
v -0.038285 0.003861 0.065511
v -0.038285 0.142257 0.065511
v -0.038285 0.003861 -0.065511
v -0.038285 0.142257 -0.065511
v 0.038286 0.003861 0.065511
v 0.038286 0.142257 0.065511
v 0.038286 0.003861 -0.065511
v 0.038286 0.142257 -0.065511
v -0.045198 0.133763 0.077339
v -0.045198 0.133763 -0.077339
v 0.045198 0.133763 -0.077339
v 0.045198 0.133763 0.077339
v -0.025898 0.193692 0.044316
v -0.025898 0.193692 -0.044316
v 0.025899 0.193692 -0.044316
v 0.025899 0.193692 0.044316
v -0.000754 0.213153 0.029695
v -0.000754 0.213153 -0.029695
v 0.000754 0.213153 -0.029695
v 0.000754 0.213153 0.029695
v -0.038285 0.003861 0.000000
v -0.038285 0.142257 0.000000
v 0.038286 0.003861 0.000000
v 0.038286 0.142257 0.000000
v -0.045198 0.133763 0.000000
v 0.045198 0.133763 0.000000
v -0.025898 0.193692 0.000000
v 0.025899 0.193692 0.000000
v -0.000754 0.213153 0.000000
v 0.000754 0.213153 0.000000
v -0.038285 0.073059 0.065511
v -0.038285 0.073059 -0.065511
v 0.038286 0.073059 -0.065511
v 0.038286 0.073059 0.065511
v 0.038286 0.073059 0.000000
v -0.038285 0.073059 0.000000
v -0.038285 -0.058042 0.000000
v -0.038285 -0.058042 0.065511
v 0.038286 -0.058042 -0.065511
v -0.038285 -0.058042 -0.065511
v 0.038286 -0.058042 0.000000
v 0.038286 -0.058042 0.065511
vt 0.9800 0.0009
vt 0.9800 0.9909
vt 0.0324 0.9909
vt 0.0324 0.0009
vt 2.0054 0.0178
vt 2.0054 1.0178
vt 1.0054 1.0178
vt 1.0054 0.0178
vt 2.0054 0.0178
vt 2.0054 1.0178
vt 1.0054 1.0178
vt 1.0054 0.0178
vt 1.0411 0.9310
vt 1.0411 2.0552
vt -0.0349 2.0552
vt -0.0349 0.9310
vt 1.0054 1.0178
vt 2.0054 1.0178
vt 2.0054 2.0178
vt 1.0054 2.0178
vt -0.0349 0.9310
vt -0.0349 -0.1933
vt 1.0411 -0.1933
vt 1.0411 0.9310
vt 1.0054 1.0178
vt 2.0054 1.0178
vt 2.0054 2.0178
vt 1.0054 2.0178
vt 0.9998 0.9719
vt -0.0028 0.9719
vt -0.0028 0.0245
vt 0.9998 0.0245
vt 2.0024 0.9719
vt 2.0024 0.0245
vt 0.0054 0.0178
vt 1.0054 0.0178
vt 0.0054 1.0178
vt -0.0349 2.0552
vt -0.0349 0.9310
vt 1.0411 0.9310
vt 1.0411 2.0552
vt 0.0054 1.0178
vt 0.0054 2.0178
vt 0.9998 0.0245
vt -0.0028 0.0245
vt 2.0024 0.0245
vt 0.9998 0.9719
vt 2.0024 0.9719
vt 0.9986 1.0111
vt -0.0030 1.0111
vt -0.0030 0.0102
vt 0.9986 0.0102
vt -0.0030 1.0111
vt 0.9986 1.0111
vt 0.9986 0.0102
vt -0.0030 0.0102
vt -0.0028 0.9719
vt 1.0054 0.0178
vt 1.0054 1.0178
vt 0.0054 1.0178
vt 0.0054 0.0178
vt 1.0054 1.0178
vt 1.0054 2.0178
vt 0.0054 2.0178
vt 0.0054 1.0178
vt 1.3541 0.7923
vt 2.1125 0.7923
vt 2.2843 0.9720
vt 1.3890 0.9720
vt 1.3541 -0.2029
vt 1.3541 0.9720
vt 0.5391 0.4703
vt 0.5391 -0.2029
vt 2.2843 -0.2029
vt 2.2843 -1.1982
vt 2.3779 -1.3779
vt 2.3779 -0.2029
vt 2.1125 -0.2029
vt 2.1125 -1.1982
vt 2.2843 -1.3779
vt 2.2843 -0.2029
vt 1.3541 -1.1982
vt 1.3890 -1.3779
vt 1.1560 1.3409
vt 0.3432 1.3409
vt 0.7378 0.9720
vt 0.7614 0.9720
vt 0.0215 -0.2029
vt 0.0215 0.9720
vt -0.9663 0.4703
vt -0.9663 -0.2029
vt 1.4588 2.3779
vt 0.0404 2.3779
vt 0.0404 2.3779
vt -1.3779 2.3779
vt -1.0751 1.3409
vt -0.2624 1.3409
vt 0.0403 -0.2029
vt 0.0215 -0.2029
vt 0.0215 -0.6541
vt 0.0403 -0.6541
vt -0.6806 0.9720
vt -0.6569 0.9720
vt 0.0403 0.2482
vt -1.3779 0.2482
vt -1.3779 -0.2029
vt -0.9663 -0.8762
vt -1.3779 -0.6541
vt 0.5391 -0.8762
vt 0.0215 0.2482
vt 0.0215 -1.3779
vt 2.2843 0.7923
vt 2.3779 0.9720
vt 1.3541 -1.3779
vn 0.0000 0.0000 1.0000
vn 1.0000 0.0000 0.0000
vn -1.0000 -0.0000 0.0000
vn -0.0000 0.0000 -1.0000
vn 0.0000 -1.0000 0.0000
vn 0.0000 -0.8123 0.5833
vn 0.9519 0.3065 0.0000
vn -0.7756 -0.6312 0.0000
vn 0.7756 -0.6312 0.0000
vn 0.0000 -0.8123 -0.5833
vn 0.0000 0.6007 0.7995
vn -0.9519 0.3065 0.0000
vn 0.0000 0.4826 0.8758
vn 0.0000 0.4826 -0.8758
vn 0.0000 1.0000 0.0000
vn 0.0000 0.6007 -0.7995
vn 0.6121 0.7908 0.0000
vn -0.6121 0.7908 0.0000
usemtl None
s off
f 34/1/1 6/2/1 2/3/1 31/4/1
f 33/5/2 8/6/2 24/7/2 35/8/2
f 31/9/3 2/10/3 22/11/3 36/12/3
f 3/13/4 32/14/4 33/15/4 7/16/4
usemtl None_HouseWall.png
f 36/17/3 22/18/3 4/19/3 32/20/3
f 32/21/4 4/22/4 8/23/4 33/24/4
f 35/25/2 24/26/2 6/27/2 34/28/2
f 23/29/2 5/30/2 42/31/2 41/32/2
f 7/33/2 23/29/2 41/32/2 39/34/2
f 7/35/2 33/36/2 35/25/2 23/37/2
f 5/38/1 34/39/1 31/40/1 1/41/1
f 21/42/3 36/17/3 32/20/3 3/43/3
f 37/44/5 41/32/5 42/31/5 38/45/5
f 40/46/5 39/34/5 41/32/5 37/44/5
f 21/47/3 3/48/3 40/46/3 37/44/3
f 5/49/1 1/50/1 38/51/1 42/52/1
f 3/53/4 7/54/4 39/55/4 40/56/4
f 1/57/3 21/47/3 37/44/3 38/45/3
usemtl None_HouseWallDoor.png
f 1/58/3 31/59/3 36/60/3 21/61/3
f 23/62/2 35/63/2 34/64/2 5/65/2
usemtl None_ThatchedRoof.png
f 8/66/6 4/67/6 10/68/6 11/69/6
f 26/70/7 11/71/7 15/72/7 28/73/7
f 24/74/8 8/75/8 11/76/8 26/77/8
f 22/78/9 2/79/9 9/80/9 25/81/9
f 2/79/10 6/82/10 12/83/10 9/80/10
f 13/84/11 16/85/11 20/86/11 17/87/11
f 25/88/12 9/89/12 13/90/12 27/91/12
f 9/92/13 12/93/13 16/85/13 13/84/13
f 11/94/14 10/95/14 14/96/14 15/97/14
f 30/98/15 29/99/15 17/100/15 20/101/15
f 15/97/16 14/96/16 18/102/16 19/103/16
f 28/73/17 15/72/17 19/104/17 30/98/17
f 27/91/18 13/90/18 17/105/18 29/106/18
f 14/107/18 27/91/18 29/106/18 18/108/18
f 16/109/17 28/73/17 30/98/17 20/101/17
f 19/104/15 18/110/15 29/99/15 30/98/15
f 10/111/12 25/88/12 27/91/12 14/107/12
f 4/67/9 22/78/9 25/81/9 10/68/9
f 6/112/8 24/74/8 26/77/8 12/113/8
f 12/114/7 26/70/7 28/73/7 16/109/7
