# Blender v2.78 (sub 0) OBJ File: ''
# www.blender.org
mtllib Pyramid.mtl
o Cube
v -1.972819 -0.666504 1.972819
v 0.000000 1.709392 0.000000
v -1.972819 -0.666504 -1.972819
v 0.000000 1.709392 0.000000
v 1.972819 -0.666504 1.972819
v 0.000000 1.709392 0.000000
v 1.972819 -0.666504 -1.972819
v 0.000000 1.709392 0.000000
vt -2.2982 -2.2982
vt 0.5000 0.5000
vt 0.5000 0.5000
vt -2.2982 3.2982
vt 0.5000 0.5000
vt 3.2982 3.2982
vt 0.5000 0.5000
vt 3.2982 -2.2982
vn -0.7693 0.6388 0.0000
vn 0.0000 0.6388 -0.7693
vn 0.7693 0.6388 0.0000
vn 0.0000 0.6388 0.7693
vn 0.0000 -1.0000 0.0000
vn 0.0000 0.0000 1.0000
usemtl None
s off
f 1/1/1 2/2/1 4/3/1 3/4/1
f 3/4/2 4/3/2 8/5/2 7/6/2
f 7/6/3 8/5/3 6/7/3 5/8/3
f 5/8/4 6/7/4 2/2/4 1/1/4
f 3/4/5 7/6/5 5/8/5 1/1/5
f 8/5/6 4/3/6 2/2/6 6/7/6
