# Blender v2.78 (sub 0) OBJ File: 'Egyptian Wall.blend'
# www.blender.org
mtllib Aztec Wall.mtl
o Cube.001
v 0.140091 -0.099130 0.510356
v 0.088458 0.486635 0.510356
v -0.140091 -0.099130 0.510356
v -0.088458 0.486635 0.510356
v 0.140091 -0.099130 -0.510356
v 0.088458 0.486635 -0.510356
v -0.140091 -0.099130 -0.510356
v -0.088458 0.486635 -0.510356
v 0.065842 0.486635 0.490975
v -0.065842 0.486635 0.490975
v -0.065842 0.486635 -0.490975
v 0.065842 0.486635 -0.490975
v 0.065842 0.465412 0.490975
v -0.065842 0.465412 0.490975
v -0.065842 0.465412 -0.490975
v 0.065842 0.465412 -0.490975
vt -0.1945 -1.1353
vt -1.8673 -1.2524
vt -1.8673 -1.6539
vt -0.1945 -1.7711
vt 2.6633 1.5341
vt 2.6633 2.8673
vt -1.8673 2.8673
vt -1.8673 1.5341
vt 1.4782 -1.1353
vt -0.1945 -1.2524
vt -0.1945 -1.6539
vt 1.4782 -1.7711
vt -1.8673 1.5341
vt -1.8673 0.2009
vt 2.6633 0.2009
vt 2.6633 1.5341
vt 2.6633 0.2009
vt -1.8673 0.2009
vt -1.8673 -0.4349
vt 2.6633 -0.4349
vt -1.8673 -0.4349
vt -1.8673 -0.8364
vt -1.7813 -0.7851
vt -1.7813 -0.4862
vt 2.8673 -0.8364
vt 2.4913 -0.8364
vt 2.4913 -0.8846
vt 2.8673 -0.8846
vt 2.6633 -0.8364
vt 2.6633 -0.4349
vt 2.5773 -0.4862
vt 2.5773 -0.7851
vt -1.8673 -1.1353
vt 2.4913 -1.1353
vt 2.4913 -0.8364
vt -1.8673 -0.8364
vt 2.8673 -0.8846
vt 2.4913 -0.8846
vt 2.4913 -0.9327
vt 2.8673 -0.9327
vt 2.4913 -1.7711
vt -1.8673 -1.7711
vt -1.8673 -1.8192
vt 2.4913 -1.8192
vt -1.8673 -1.8673
vt 2.4913 -1.8673
vt 2.4913 -1.8192
vt -1.8673 -1.8192
vn 0.0000 0.0000 1.0000
vn -0.9961 0.0878 0.0000
vn 0.0000 0.0000 -1.0000
vn 0.9961 0.0878 -0.0000
vn 0.0000 -1.0000 0.0000
vn 0.0000 1.0000 -0.0000
vn -1.0000 0.0000 0.0000
vn 1.0000 0.0000 -0.0000
usemtl None
s off
f 1/1/1 2/2/1 4/3/1 3/4/1
f 3/5/2 4/6/2 8/7/2 7/8/2
f 7/9/3 8/10/3 6/11/3 5/12/3
f 5/13/4 6/14/4 2/15/4 1/16/4
f 3/17/5 7/18/5 5/19/5 1/20/5
f 6/21/6 8/22/6 11/23/6 12/24/6
f 12/25/1 11/26/1 15/27/1 16/28/1
f 4/29/6 2/30/6 9/31/6 10/32/6
f 2/30/6 6/21/6 12/24/6 9/31/6
f 8/22/6 4/29/6 10/32/6 11/23/6
f 15/33/6 14/34/6 13/35/6 16/36/6
f 10/37/3 9/38/3 13/39/3 14/40/3
f 9/41/7 12/42/7 16/43/7 13/44/7
f 11/45/8 10/46/8 14/47/8 15/48/8
