# Blender v2.78 (sub 0) OBJ File: 'JungleTree.blend'
# www.blender.org
mtllib JungleTree.mtl
o Cylinder.001
v 0.173209 -0.332674 -0.049150
v 0.173209 -0.257632 -0.049150
v 0.218273 -0.332674 0.002496
v 0.218273 -0.257632 0.002496
v 0.218273 -0.332674 0.105790
v 0.218273 -0.257632 0.105790
v 0.173209 -0.332674 0.157436
v 0.173209 -0.257632 0.157436
v 0.128145 -0.332674 0.105790
v 0.128145 -0.257632 0.105790
v 0.128145 -0.332674 0.002496
v 0.128145 -0.257632 0.002496
v 0.217931 -0.172119 -0.000675
v 0.173209 -0.171845 -0.051964
v 0.217957 -0.172649 0.101988
v 0.173209 -0.172906 0.153361
v 0.128461 -0.172649 0.101988
v 0.128487 -0.172119 -0.000675
v 0.215836 -0.044044 -0.018444
v 0.173209 -0.043402 -0.067379
v 0.215903 -0.045316 0.079652
v 0.173209 -0.045945 0.128813
v 0.130515 -0.045316 0.079652
v 0.130582 -0.044044 -0.018444
v 0.201541 0.091876 -0.044662
v 0.161764 0.092572 -0.089727
v 0.202742 0.090263 0.045816
v 0.163917 0.089499 0.091200
v 0.124055 0.090263 0.045816
v 0.123041 0.091876 -0.044662
v 0.071974 0.311924 -0.093927
v 0.039218 0.312115 -0.130742
v 0.074522 0.310483 -0.019858
v 0.043339 0.309940 0.017280
v 0.010099 0.310483 -0.019858
v 0.007756 0.311924 -0.093927
v -0.031083 0.439555 -0.123926
v -0.058199 0.439267 -0.155036
v -0.029132 0.438528 -0.061346
v -0.055763 0.438282 -0.030022
v -0.083614 0.438528 -0.061346
v -0.085394 0.439555 -0.123926
v -0.121883 0.563971 -0.154689
v -0.145351 0.563627 -0.181830
v -0.121018 0.563519 -0.100291
v -0.144529 0.563483 -0.073093
v -0.168451 0.563519 -0.100291
v -0.169220 0.563971 -0.154689
v -0.175045 0.656706 -0.171661
v -0.192595 0.656711 -0.191734
v -0.174974 0.656696 -0.131511
v -0.192456 0.656691 -0.111433
v -0.210008 0.656696 -0.131511
v -0.210075 0.656706 -0.171661
v -0.196757 0.723821 -0.181825
v -0.211447 0.723822 -0.198659
v -0.196753 0.723821 -0.148157
v -0.211440 0.723821 -0.131322
v -0.226130 0.723821 -0.148157
v -0.226133 0.723821 -0.181825
v -0.201196 0.766509 -0.184292
v -0.215065 0.766509 -0.200187
v -0.201196 0.766509 -0.152503
v -0.215065 0.766509 -0.136608
v -0.228934 0.766509 -0.152503
v -0.228934 0.766509 -0.184292
vt 1.3114 2.3850
vt 1.2545 2.1269
vt 1.5000 2.1262
vt 1.5569 2.3843
vt 0.0752 -1.3863
vt 0.0185 -1.1289
vt -0.2245 -1.1416
vt -0.1678 -1.3990
vt -0.7142 -1.1491
vt -0.6575 -1.4065
vt -0.9609 -1.1439
vt -0.9042 -1.4013
vt -0.7687 -0.8579
vt -1.0137 -0.8519
vt 0.5775 2.3993
vt 0.5206 2.1412
vt 0.7648 2.1344
vt 0.8217 2.3925
vt 1.5569 -1.2125
vt 1.5569 -1.3418
vt 1.9817 -1.4065
vt 2.4065 -1.3418
vt 2.4065 -1.2125
vt 1.9817 -1.1478
vt 0.7102 1.8399
vt 0.4677 1.8486
vt 0.4407 1.4089
vt 0.6722 1.3980
vt -0.0415 -0.8351
vt -0.2824 -0.8496
vt 1.1961 1.8315
vt 1.4398 1.8318
vt 1.1351 1.3887
vt 0.6586 0.9284
vt 1.0848 0.9194
vt -0.3430 -0.4101
vt -0.8070 -0.4194
vt 1.3676 1.3903
vt -1.0406 -0.4123
vt -0.1137 -0.3937
vt 0.4452 0.9399
vt 0.4916 0.1773
vt 0.6664 0.1675
vt -0.8209 0.0498
vt -1.0362 0.0571
vt -0.1824 0.0757
vt -0.3932 0.0591
vt 1.2989 0.9212
vt 1.0152 0.1615
vt 0.6809 -0.2740
vt 0.9762 -0.2776
vt -0.4635 0.8224
vt -0.8137 0.8151
vt 1.1902 0.1616
vt -0.9899 0.8208
vt -0.2912 0.8365
vt 0.5331 -0.2663
vt 0.0752 -0.6908
vt 0.4455 -0.7056
vt -0.7995 1.2612
vt -0.9485 1.2652
vt -0.3576 1.2778
vt -0.5034 1.2666
vt 1.1239 -0.2790
vt -1.4065 1.6904
vt -1.0328 1.6821
vt -0.7731 2.0205
vt -0.8690 2.0225
vt -0.2910 1.6939
vt 1.1866 -0.7135
vt 1.5569 -0.7180
vt 0.0752 1.7176
vt -0.5827 2.0234
vt -0.6174 2.2556
vt -0.7771 2.2532
vt -0.4883 2.0284
vt 0.6128 -1.0224
vt 0.7077 -1.0251
vt 0.8980 -1.0280
vt 0.9935 -1.0283
vt -0.5382 2.2598
vt -0.5714 2.4065
vt -0.6462 2.4026
vt 0.8635 -1.2593
vt 0.9435 -1.2596
vt 0.7039 -1.2569
vt -0.8575 2.2549
vt 0.6243 -1.2547
vt 1.5569 -1.1279
vt 1.6876 -1.1478
vt 1.8184 -1.1279
vt 1.8184 -1.0881
vt 1.6876 -1.0682
vt 1.5569 -1.0881
vt 0.6089 -1.4019
vt 0.6840 -1.4040
vt -0.7969 2.4003
vt 0.8347 -1.4063
vt 0.9103 -1.4065
vt -0.8728 2.4019
vn 0.7535 0.0000 -0.6575
vn 1.0000 0.0000 0.0000
vn 0.7535 0.0000 0.6575
vn -0.7535 0.0000 0.6575
vn -0.7533 0.0319 0.6568
vn -1.0000 0.0000 0.0000
vn -0.7535 0.0000 -0.6575
vn 0.0000 -1.0000 0.0000
vn -0.9999 0.0162 -0.0003
vn 1.0000 0.0039 -0.0001
vn -1.0000 0.0039 -0.0001
vn 0.7534 -0.0215 -0.6572
vn 0.7533 0.0319 0.6568
vn -0.7534 -0.0215 -0.6572
vn -0.7443 -0.1675 -0.6465
vn 0.7479 0.1262 0.6517
vn 0.7512 -0.0787 -0.6554
vn -0.7512 -0.0787 -0.6554
vn -0.7479 0.1262 0.6517
vn 0.9999 0.0162 -0.0003
vn -0.8880 -0.4598 0.0096
vn -0.7460 0.1289 0.6533
vn 0.9950 0.0995 -0.0052
vn -0.9987 -0.0506 0.0042
vn 0.7355 0.2290 0.6376
vn 0.7508 -0.0466 -0.6589
vn -0.6188 -0.5765 -0.5335
vn 0.6397 0.5358 0.5512
vn 0.7196 0.2824 -0.6344
vn -0.6645 -0.4776 -0.5748
vn -0.7369 -0.1863 0.6498
vn 0.8641 0.5032 -0.0103
vn -0.8297 -0.5580 0.0110
vn -0.7098 -0.3157 0.6297
vn 0.7795 0.6262 -0.0143
vn -0.8091 -0.5875 0.0138
vn 0.5855 0.6368 0.5018
vn 0.6841 0.4096 -0.6035
vn -0.7469 -0.1141 0.6551
vn 0.6029 0.6056 0.5195
vn 0.7024 0.3604 -0.6138
vn -0.6275 -0.5571 -0.5440
vn -0.7174 -0.2902 0.6333
vn 0.8083 0.5887 -0.0120
vn 0.6981 0.3775 0.6084
vn 0.8671 0.4980 -0.0062
vn -0.9148 -0.4039 0.0061
vn 0.6311 0.5494 0.5477
vn 0.7195 0.2981 -0.6272
vn -0.6869 -0.4122 -0.5986
vn 0.9946 0.1035 -0.0001
vn 0.7455 0.1424 -0.6512
vn -0.7260 -0.2694 -0.6328
vn -0.7530 -0.0179 0.6577
vn 0.9514 0.3080 -0.0009
vn -0.9725 -0.2330 0.0009
vn 0.0000 1.0000 0.0000
vn -0.9979 -0.0655 0.0000
vn 0.7457 0.1439 0.6506
vn 0.7529 0.0403 -0.6569
vn -0.7507 -0.0871 -0.6549
vn -0.7534 0.0174 0.6574
usemtl None
s off
f 1/1/1 2/2/1 4/3/1 3/4/1
f 3/5/2 4/6/2 6/7/2 5/8/2
f 5/8/3 6/7/3 8/9/3 7/10/3
f 7/10/4 8/9/4 10/11/4 9/12/4
f 10/11/5 8/9/5 16/13/5 17/14/5
f 9/15/6 10/16/6 12/17/6 11/18/6
f 11/18/7 12/17/7 2/2/7 1/1/7
f 1/19/8 3/20/8 5/21/8 7/22/8 9/23/8 11/24/8
f 18/25/9 17/26/9 23/27/9 24/28/9
f 6/7/10 4/6/10 13/29/10 15/30/10
f 12/17/11 10/16/11 17/26/11 18/25/11
f 4/3/12 2/2/12 14/31/12 13/32/12
f 8/9/13 6/7/13 15/30/13 16/13/13
f 2/2/14 12/17/14 18/25/14 14/31/14
f 20/33/15 24/28/15 30/34/15 26/35/15
f 16/13/16 15/30/16 21/36/16 22/37/16
f 13/32/17 14/31/17 20/33/17 19/38/17
f 14/31/18 18/25/18 24/28/18 20/33/18
f 17/14/19 16/13/19 22/37/19 23/39/19
f 15/30/20 13/29/20 19/40/20 21/36/20
f 30/34/21 29/41/21 35/42/21 36/43/21
f 23/39/22 22/37/22 28/44/22 29/45/22
f 21/36/23 19/40/23 25/46/23 27/47/23
f 24/28/24 23/27/24 29/41/24 30/34/24
f 22/37/25 21/36/25 27/47/25 28/44/25
f 19/38/26 20/33/26 26/35/26 25/48/26
f 32/49/27 36/43/27 42/50/27 38/51/27
f 28/44/28 27/47/28 33/52/28 34/53/28
f 25/48/29 26/35/29 32/49/29 31/54/29
f 26/35/30 30/34/30 36/43/30 32/49/30
f 29/45/31 28/44/31 34/53/31 35/55/31
f 27/47/32 25/46/32 31/56/32 33/52/32
f 42/50/33 41/57/33 47/58/33 48/59/33
f 35/55/34 34/53/34 40/60/34 41/61/34
f 33/52/35 31/56/35 37/62/35 39/63/35
f 36/43/36 35/42/36 41/57/36 42/50/36
f 34/53/37 33/52/37 39/63/37 40/60/37
f 31/54/38 32/49/38 38/51/38 37/64/38
f 47/65/39 46/66/39 52/67/39 53/68/39
f 40/60/40 39/63/40 45/69/40 46/66/40
f 37/64/41 38/51/41 44/70/41 43/71/41
f 38/51/42 42/50/42 48/59/42 44/70/42
f 41/61/43 40/60/43 46/66/43 47/65/43
f 39/63/44 37/62/44 43/72/44 45/69/44
f 52/67/45 51/73/45 57/74/45 58/75/45
f 45/69/46 43/72/46 49/76/46 51/73/46
f 48/59/47 47/58/47 53/77/47 54/78/47
f 46/66/48 45/69/48 51/73/48 52/67/48
f 43/71/49 44/70/49 50/79/49 49/80/49
f 44/70/50 48/59/50 54/78/50 50/79/50
f 57/74/51 55/81/51 61/82/51 63/83/51
f 49/80/52 50/79/52 56/84/52 55/85/52
f 50/79/53 54/78/53 60/86/53 56/84/53
f 53/68/54 52/67/54 58/75/54 59/87/54
f 51/73/55 49/76/55 55/81/55 57/74/55
f 54/78/56 53/77/56 59/88/56 60/86/56
f 61/89/57 62/90/57 66/91/57 65/92/57 64/93/57 63/94/57
f 60/86/58 59/88/58 65/95/58 66/96/58
f 58/75/59 57/74/59 63/83/59 64/97/59
f 55/85/60 56/84/60 62/98/60 61/99/60
f 56/84/61 60/86/61 66/96/61 62/98/61
f 59/87/62 58/75/62 64/97/62 65/100/62
o Plane.003
v 0.665957 1.121291 0.288187
v 0.665957 0.142008 0.288187
v -0.945811 1.121291 -0.628952
v -0.945811 0.142008 -0.628952
v -0.945811 1.121291 -0.628952
v 0.665957 1.121291 0.288187
v 0.665957 0.142008 0.288187
v -0.945811 0.142008 -0.628952
v -0.228754 1.119781 0.229854
v -0.342133 0.141129 0.180447
v -0.143180 1.122171 -0.556349
v -0.256561 0.143517 -0.605756
v -0.143180 1.122171 -0.556349
v -0.228754 1.119781 0.229854
v -0.342133 0.141129 0.180447
v -0.256561 0.143517 -0.605756
v 0.588047 1.121731 -0.111100
v 0.640414 0.142742 -0.065390
v -0.838147 1.120555 -0.131228
v -0.785778 0.141567 -0.085519
v -0.838147 1.120555 -0.131228
v 0.588047 1.121731 -0.111100
v 0.640414 0.142742 -0.065390
v -0.785778 0.141567 -0.085519
v 0.285621 1.121731 -0.328665
v 0.358015 0.142742 -0.288632
v -0.555747 1.120555 0.092014
v -0.483352 0.141567 0.132046
v -0.555747 1.120555 0.092014
v 0.285621 1.121731 -0.328665
v 0.358015 0.142742 -0.288632
v -0.483352 0.141567 0.132046
v -0.719166 1.121731 -0.609912
v -0.665473 0.142742 -0.617326
v 0.467742 1.120555 0.420708
v 0.521433 0.141567 0.413293
v 0.467742 1.120555 0.420708
v -0.719166 1.121731 -0.609912
v -0.665473 0.142742 -0.617326
v 0.521433 0.141567 0.413293
v -0.971760 1.121731 -0.340384
v -0.988441 0.142742 -0.381748
v 0.790710 1.120555 0.185130
v 0.774027 0.141567 0.143765
v 0.790710 1.120555 0.185130
v -0.971760 1.121731 -0.340384
v -0.988441 0.142742 -0.381748
v 0.774027 0.141567 0.143765
vt 0.0059 0.9762
vt 0.9890 0.9762
vt 0.9890 0.1674
vt 0.0059 0.1674
vt 0.0059 0.9762
vt 0.0059 0.1674
vt 0.9890 0.1674
vt 0.9890 0.9762
vt 0.0059 0.9762
vt 0.9890 0.9762
vt 0.9890 0.1674
vt 0.0059 0.1674
vt 0.0059 0.9762
vt 0.0059 0.1674
vt 0.9890 0.1674
vt 0.9890 0.9762
vt 0.0059 0.9762
vt 0.9890 0.9762
vt 0.9890 0.1674
vt 0.0059 0.1674
vt 0.0059 0.9762
vt 0.0059 0.1674
vt 0.9890 0.1674
vt 0.9890 0.9762
vt 0.0059 0.9762
vt 0.9890 0.9762
vt 0.9890 0.1674
vt 0.0059 0.1674
vt 0.0059 0.9762
vt 0.0059 0.1674
vt 0.9890 0.1674
vt 0.9890 0.9762
vt 0.0059 0.9762
vt 0.9890 0.9762
vt 0.9890 0.1674
vt 0.0059 0.1674
vt 0.0059 0.9762
vt 0.0059 0.1674
vt 0.9890 0.1674
vt 0.9890 0.9762
vt 0.0059 0.9762
vt 0.9890 0.9762
vt 0.9890 0.1674
vt 0.0059 0.1674
vt 0.0059 0.9762
vt 0.0059 0.1674
vt 0.9890 0.1674
vt 0.9890 0.9762
vn -0.4946 0.0000 0.8691
vn 0.4946 -0.0000 -0.8691
vn 0.0000 0.0000 1.0000
vn -0.9870 0.1198 -0.1071
vn 0.9870 -0.1198 0.1071
vn -0.0141 0.0459 0.9988
vn 0.0141 -0.0459 -0.9988
vn 0.4461 0.0695 0.8923
vn -0.4461 -0.0695 -0.8923
vn 0.6551 0.0416 -0.7544
vn -0.6551 -0.0416 0.7544
vn 0.2856 0.0356 -0.9577
vn -0.2856 -0.0356 0.9577
usemtl None_JungleTreeleaves.png
s off
f 67/101/63 69/102/63 70/103/63 68/104/63
f 72/105/64 73/106/64 74/107/64 71/108/64
f 70/103/65 69/102/65 71/108/65 74/107/65
f 67/101/65 68/104/65 73/106/65 72/105/65
f 68/104/65 70/103/65 74/107/65 73/106/65
f 69/102/65 67/101/65 72/105/65 71/108/65
f 75/109/66 77/110/66 78/111/66 76/112/66
f 80/113/67 81/114/67 82/115/67 79/116/67
f 78/111/65 77/110/65 79/116/65 82/115/65
f 75/109/65 76/112/65 81/114/65 80/113/65
f 76/112/65 78/111/65 82/115/65 81/114/65
f 77/110/65 75/109/65 80/113/65 79/116/65
f 83/117/68 85/118/68 86/119/68 84/120/68
f 88/121/69 89/122/69 90/123/69 87/124/69
f 86/119/65 85/118/65 87/124/65 90/123/65
f 83/117/65 84/120/65 89/122/65 88/121/65
f 84/120/65 86/119/65 90/123/65 89/122/65
f 85/118/65 83/117/65 88/121/65 87/124/65
f 91/125/70 93/126/70 94/127/70 92/128/70
f 96/129/71 97/130/71 98/131/71 95/132/71
f 94/127/65 93/126/65 95/132/65 98/131/65
f 91/125/65 92/128/65 97/130/65 96/129/65
f 92/128/65 94/127/65 98/131/65 97/130/65
f 93/126/65 91/125/65 96/129/65 95/132/65
f 99/133/72 101/134/72 102/135/72 100/136/72
f 104/137/73 105/138/73 106/139/73 103/140/73
f 102/135/65 101/134/65 103/140/65 106/139/65
f 99/133/65 100/136/65 105/138/65 104/137/65
f 100/136/65 102/135/65 106/139/65 105/138/65
f 101/134/65 99/133/65 104/137/65 103/140/65
f 107/141/74 109/142/74 110/143/74 108/144/74
f 112/145/75 113/146/75 114/147/75 111/148/75
f 110/143/65 109/142/65 111/148/65 114/147/65
f 107/141/65 108/144/65 113/146/65 112/145/65
f 108/144/65 110/143/65 114/147/65 113/146/65
f 109/142/65 107/141/65 112/145/65 111/148/65
