# Blender v2.78 (sub 0) OBJ File: 'Pyramid.blend'
# www.blender.org
mtllib Pyramid.mtl
o Cube
v -0.509001 -0.042558 0.509001
v 0.000000 0.570439 0.000000
v -0.509001 -0.042558 -0.509001
v 0.000000 0.570439 0.000000
v 0.509001 -0.042558 0.509001
v 0.000000 0.570439 0.000000
v 0.509001 -0.042558 -0.509001
v 0.000000 0.570439 0.000000
vt -0.9965 1.9965
vt 0.5000 0.5000
vt 0.5000 0.5000
vt 1.9965 1.9965
vt -0.9965 1.9965
vt 0.5000 0.5000
vt 1.9965 1.9965
vt 1.9965 -0.9965
vt 0.5000 0.5000
vt -0.9965 -0.9965
vt 1.9965 -0.9965
vt -0.9965 -0.9965
vn -0.7693 0.6388 0.0000
vn 0.0000 0.6388 -0.7693
vn 0.7693 0.6388 0.0000
vn 0.0000 0.6388 0.7693
vn 0.0000 -1.0000 0.0000
vn 0.0000 0.0000 1.0000
usemtl None
s off
f 1/1/1 2/2/1 4/3/1 3/4/1
f 3/5/2 4/3/2 8/6/2 7/7/2
f 7/8/3 8/6/3 6/9/3 5/10/3
f 5/11/4 6/9/4 2/2/4 1/12/4
f 3/5/5 7/7/5 5/11/5 1/12/5
f 8/6/6 4/3/6 2/2/6 6/9/6
