# Blender v2.78 (sub 0) OBJ File: 'OliveTree.blend'
# www.blender.org
mtllib OliveTree.mtl
o Plane.003
v 0.169231 0.347678 -0.041450
v 0.169231 -0.003274 -0.041450
v -0.178408 0.347678 -0.040481
v -0.178408 -0.003274 -0.040481
v -0.178408 0.347678 -0.040481
v 0.169231 0.347678 -0.041450
v 0.169231 -0.003274 -0.041450
v -0.178408 -0.003274 -0.040481
v -0.006432 -0.003274 -0.214776
v -0.002746 -0.003274 0.132845
v -0.002746 0.347678 0.132845
v -0.006432 0.347678 -0.214776
v -0.006432 -0.003274 -0.214776
v -0.006432 0.347678 -0.214776
v -0.002746 -0.003274 0.132845
v -0.002746 0.347678 0.132845
v 0.117978 0.347678 -0.164217
v 0.117978 -0.003274 -0.164217
v -0.127155 0.347678 0.082286
v -0.127155 -0.003274 0.082286
v -0.127155 0.347678 0.082286
v 0.117978 0.347678 -0.164217
v 0.117978 -0.003274 -0.164217
v -0.127155 -0.003274 0.082286
v -0.128794 -0.003274 -0.162565
v 0.119617 -0.003274 0.080634
v 0.119617 0.347678 0.080634
v -0.128794 0.347678 -0.162565
v -0.128794 -0.003274 -0.162565
v -0.128794 0.347678 -0.162565
v 0.119617 -0.003274 0.080634
v 0.119617 0.347678 0.080634
vt 0.0036 0.9906
vt 0.9716 0.9906
vt 0.9716 0.0054
vt 0.0036 0.0054
vt 0.0036 0.9906
vt 0.0036 0.0054
vt 0.9716 0.0054
vt 0.9716 0.9906
vt 0.0036 0.0054
vt 0.9716 0.0054
vt 0.9716 0.0054
vt 0.0036 0.0054
vt 0.0036 0.9906
vt 0.9716 0.9906
vt 0.0036 0.9906
vt 0.9716 0.9906
vt 0.0036 0.9906
vt 0.9716 0.9906
vt 0.9716 0.0054
vt 0.0036 0.0054
vt 0.0036 0.9906
vt 0.0036 0.0054
vt 0.9716 0.0054
vt 0.9716 0.9906
vt 0.0036 0.0054
vt 0.9716 0.0054
vt 0.9716 0.0054
vt 0.0036 0.0054
vt 0.0036 0.9906
vt 0.9716 0.9906
vt 0.0036 0.9906
vt 0.9716 0.9906
vn 0.0028 0.0000 1.0000
vn -0.0028 -0.0000 -1.0000
vn 0.0000 0.0000 1.0000
vn -0.9999 0.0000 0.0106
vn 0.9999 -0.0000 -0.0106
vn 0.7091 0.0000 0.7051
vn -0.7091 -0.0000 -0.7051
vn -0.6996 0.0000 0.7146
vn 0.6996 -0.0000 -0.7146
usemtl None
s off
f 1/1/1 3/2/1 4/3/1 2/4/1
f 6/5/2 7/6/2 8/7/2 5/8/2
f 4/3/3 3/2/3 5/8/3 8/7/3
f 1/1/3 2/4/3 7/6/3 6/5/3
f 2/4/3 4/3/3 8/7/3 7/6/3
f 3/2/3 1/1/3 6/5/3 5/8/3
f 15/9/3 13/10/3 9/11/3 10/12/3
f 16/13/4 14/14/4 13/10/4 15/9/4
f 11/15/5 10/12/5 9/11/5 12/16/5
f 16/13/3 15/9/3 10/12/3 11/15/3
f 13/10/3 14/14/3 12/16/3 9/11/3
f 14/14/3 16/13/3 11/15/3 12/16/3
f 17/17/6 19/18/6 20/19/6 18/20/6
f 22/21/7 23/22/7 24/23/7 21/24/7
f 20/19/3 19/18/3 21/24/3 24/23/3
f 17/17/3 18/20/3 23/22/3 22/21/3
f 18/20/3 20/19/3 24/23/3 23/22/3
f 19/18/3 17/17/3 22/21/3 21/24/3
f 31/25/3 29/26/3 25/27/3 26/28/3
f 32/29/8 30/30/8 29/26/8 31/25/8
f 27/31/9 26/28/9 25/27/9 28/32/9
f 32/29/3 31/25/3 26/28/3 27/31/3
f 29/26/3 30/30/3 28/32/3 25/27/3
f 30/30/3 32/29/3 27/31/3 28/32/3
