# Blender v2.78 (sub 0) OBJ File: 'Aztec Gate.blend'
# www.blender.org
mtllib Aztec Gate.mtl
o Cube.001
v 0.140091 -0.099130 0.510356
v 0.088458 0.486635 0.510356
v -0.140091 -0.099130 0.510356
v -0.088458 0.486635 0.510356
v 0.140091 -0.099130 -0.510356
v 0.088458 0.486635 -0.510356
v -0.140091 -0.099130 -0.510356
v -0.088458 0.486635 -0.510356
v 0.065842 0.486635 0.490975
v -0.065842 0.486635 0.490975
v -0.065842 0.486635 -0.490975
v 0.065842 0.486635 -0.490975
v 0.065842 0.465412 0.490975
v -0.065842 0.465412 0.490975
v -0.065842 0.465412 -0.490975
v 0.065842 0.465412 -0.490975
v -0.140091 -0.099130 -0.170119
v -0.140091 -0.099130 0.170119
v -0.088458 0.486635 0.170119
v -0.088458 0.486635 -0.170119
v 0.140091 -0.099130 0.170119
v 0.140091 -0.099130 -0.170119
v 0.088458 0.486635 -0.170119
v 0.088458 0.486635 0.170119
v -0.065842 0.486635 0.163658
v -0.065842 0.486635 -0.163658
v 0.065842 0.486635 -0.163658
v 0.065842 0.486635 0.163658
v -0.065842 0.465412 0.163658
v -0.065842 0.465412 -0.163658
v 0.065842 0.465412 -0.163658
v 0.065842 0.465412 0.163658
v 0.104918 0.299894 0.510356
v -0.104918 0.299894 0.510356
v -0.104918 0.299894 -0.510356
v 0.104918 0.299894 -0.510356
v 0.104918 0.299894 -0.096377
v 0.104918 0.299894 0.096377
v -0.104918 0.299894 0.096377
v -0.104918 0.299894 -0.096377
vt -0.6788 -1.7430
vt -0.1349 -1.6972
vt -0.1349 -1.2045
vt -0.6788 -1.1586
vt 1.6340 -1.3192
vt 1.8490 -1.8410
vt 2.8410 -1.8410
vt 2.8410 -1.3192
vt -0.6788 -0.9627
vt -0.1349 -0.9169
vt -0.1349 -0.4241
vt -0.6788 -0.3783
vt 1.6340 0.3177
vt 1.8490 -0.2041
vt 2.8410 -0.2041
vt 2.8410 0.3177
vt -1.1269 1.2803
vt -0.1349 1.2803
vt -0.1349 2.0607
vt -1.1269 2.0607
vt -0.1349 1.9254
vt -0.1349 1.4327
vt -0.0784 1.4957
vt -0.0784 1.8624
vt -1.1269 1.8762
vt -1.5108 1.8762
vt -1.5108 1.8172
vt -1.1269 1.8172
vt 2.8410 1.4327
vt 2.8410 1.9254
vt 2.7845 1.8624
vt 2.7845 1.4957
vt 0.8570 1.9254
vt 0.8759 1.8624
vt 1.8490 1.4327
vt 1.8302 1.4957
vt 1.8867 1.9254
vt 2.8410 1.9254
vt 2.8410 2.2922
vt 1.8867 2.2922
vt -1.1269 1.9353
vt -1.5108 1.9353
vt -1.5108 1.8762
vt -1.1269 1.8762
vt 1.8867 2.2922
vt 2.8410 2.2922
vt 2.8410 2.3512
vt 1.8867 2.3512
vt 1.8867 2.3512
vt 2.8410 2.3512
vt 2.8410 2.4102
vt 1.8867 2.4102
vt -0.0219 2.3512
vt 0.9324 2.3512
vt 0.9324 2.4102
vt -0.0219 2.4102
vt -0.0219 2.2922
vt 0.9324 2.2922
vt 0.9324 2.3512
vt -0.0219 2.3512
vt -0.0219 1.9254
vt 0.9324 1.9254
vt 0.9324 2.2922
vt -0.0219 2.2922
vt 0.8570 1.4327
vt 0.8759 1.4957
vt 1.8490 1.9254
vt 1.8302 1.8624
vt -1.1269 2.0607
vt -0.1349 2.0607
vt -0.1349 2.8410
vt -1.1269 2.8410
vt -0.1349 0.3177
vt -0.1349 -0.2041
vt 0.8570 -0.2041
vt 1.0720 0.3177
vt -0.1349 -1.3192
vt -0.1349 -1.8410
vt 0.8570 -1.8410
vt 1.0720 -1.3192
vt -0.1349 -0.2041
vt 0.8570 -0.2041
vt -0.1349 1.4327
vt 0.8570 1.4327
vt 1.8490 1.4327
vt 2.8410 1.4327
vt -1.8410 -1.0607
vt -1.8410 -0.2803
vt 1.8490 -0.2041
vt 2.8410 -0.2041
vt -1.8410 -1.8410
vt -1.8410 -1.0607
vt -1.3069 0.5000
vt -0.1349 0.5980
vt -0.1349 1.1824
vt -1.3069 1.2803
vt -1.3069 0.5000
vt -1.3069 -0.2803
vt -0.1349 -0.1824
vt -0.1349 0.4020
vt -1.7387 1.8172
vt -1.7387 1.2803
vt -1.1269 1.2803
vt -1.1269 1.8172
vn 0.0000 0.0000 1.0000
vn -0.9961 0.0878 0.0000
vn 0.0000 0.0000 -1.0000
vn 0.9961 0.0878 -0.0000
vn 0.0000 -1.0000 0.0000
vn 0.0000 1.0000 -0.0000
vn -1.0000 0.0000 0.0000
vn 1.0000 0.0000 -0.0000
vn 0.0000 -0.1817 -0.9833
vn 0.0000 -0.1817 0.9833
usemtl None
s off
f 33/1/1 2/2/1 4/3/1 34/4/1
f 40/5/2 20/6/2 8/7/2 35/8/2
f 35/9/3 8/10/3 6/11/3 36/12/3
f 38/13/4 24/14/4 2/15/4 33/16/4
f 17/17/5 7/18/5 5/19/5 22/20/5
f 6/21/6 8/22/6 11/23/6 12/24/6
f 12/25/1 11/26/1 15/27/1 16/28/1
f 4/29/6 2/30/6 9/31/6 10/32/6
f 23/33/6 6/21/6 12/24/6 27/34/6
f 19/35/6 4/29/6 10/32/6 25/36/6
f 29/37/6 14/38/6 13/39/6 32/40/6
f 10/41/3 9/42/3 13/43/3 14/44/3
f 27/45/7 12/46/7 16/47/7 31/48/7
f 25/49/8 10/50/8 14/51/8 29/52/8
f 11/53/8 26/54/8 30/55/8 15/56/8
f 26/54/8 25/49/8 29/52/8 30/55/8
f 9/57/7 28/58/7 32/59/7 13/60/7
f 28/58/7 27/45/7 31/48/7 32/59/7
f 15/61/6 30/62/6 31/63/6 16/64/6
f 30/62/6 29/37/6 32/40/6 31/63/6
f 8/22/6 20/65/6 26/66/6 11/23/6
f 20/65/6 19/35/6 25/36/6 26/66/6
f 2/30/6 24/67/6 28/68/6 9/31/6
f 24/67/6 23/33/6 27/34/6 28/68/6
f 3/69/5 18/70/5 21/71/5 1/72/5
f 36/73/4 6/74/4 23/75/4 37/76/4
f 37/76/4 23/75/4 24/14/4 38/13/4
f 34/77/2 4/78/2 19/79/2 39/80/2
f 39/80/2 19/79/2 20/6/2 40/5/2
f 3/81/2 34/77/2 39/80/2 18/82/2
f 5/83/4 36/73/4 37/76/4 22/84/4
f 21/85/4 38/13/4 33/16/4 1/86/4
f 7/87/3 35/9/3 36/12/3 5/88/3
f 17/89/2 40/5/2 35/8/2 7/90/2
f 1/91/1 33/1/1 34/4/1 3/92/1
f 18/93/9 39/94/9 38/95/9 21/96/9
f 17/97/10 22/98/10 37/99/10 40/100/10
f 39/101/5 40/102/5 37/103/5 38/104/5
