# Blender v2.78 (sub 0) OBJ File: 'Dwarf House.blend'
# www.blender.org
mtllib Dwarf House.mtl
o Plane
v -0.033739 -0.100531 0.088259
v -0.033739 0.147885 0.088259
v -0.033739 -0.100531 -0.053974
v -0.033739 0.147885 -0.053974
v 0.108493 -0.100531 0.088259
v 0.108493 0.147885 0.088259
v 0.108493 -0.100531 -0.053974
v 0.108493 0.147885 -0.053974
v 0.139895 0.114874 -0.015098
v 0.139895 -0.067520 -0.015098
v 0.139895 -0.067520 0.049384
v 0.139895 0.114874 0.049384
v 0.139895 0.079029 -0.002426
v 0.139895 0.015290 -0.002426
v 0.139895 0.015290 0.036712
v 0.139895 0.079029 0.036712
v 0.106615 0.039715 -0.002426
v 0.106615 -0.070990 -0.002426
v 0.106615 -0.070990 0.036712
v 0.106615 0.039715 0.036712
v -0.033739 0.180178 0.041695
v -0.033739 0.180178 -0.007410
v 0.108493 0.180178 -0.007410
v 0.108493 0.180178 0.041695
v 0.028892 0.193235 0.041695
v 0.028892 0.193235 -0.007410
v 0.045862 0.193235 -0.007410
v 0.045862 0.193235 0.041695
v -0.001561 0.147885 -0.087575
v -0.001561 -0.100531 -0.087575
v 0.076315 -0.100531 -0.087575
v 0.076315 0.147885 -0.087575
v 0.048858 0.134893 -0.087575
v 0.048858 0.095809 -0.087575
v 0.061110 0.095809 -0.087575
v 0.061110 0.134893 -0.087575
v 0.048858 0.110138 -0.064161
v 0.048858 0.071053 -0.064161
v 0.061110 0.071053 -0.064161
v 0.061110 0.110138 -0.064161
v -0.078361 -0.100531 -0.014662
v -0.078361 -0.100531 0.048947
v -0.078361 0.147885 0.048947
v -0.078361 0.147885 -0.014662
v -0.078361 0.018447 0.002148
v -0.078361 0.018447 0.032137
v -0.078361 0.135565 0.032137
v -0.078361 0.135565 0.002148
v -0.032810 -0.030300 0.002148
v -0.032810 -0.030300 0.032137
v -0.032810 0.086818 0.032137
v -0.032810 0.086818 0.002148
v -0.005294 -0.100531 0.140938
v -0.005294 0.147885 0.140938
v 0.080048 0.147885 0.140938
v 0.080048 -0.100531 0.140938
v 0.018337 0.087572 0.140938
v 0.018337 0.133613 0.140938
v 0.053620 0.133613 0.140938
v 0.053620 0.087572 0.140938
v 0.018337 0.040745 0.073506
v 0.018337 0.086786 0.073506
v 0.053620 0.086786 0.073506
v 0.053620 0.040745 0.073506
v -0.019341 0.224127 0.029452
v -0.019341 0.224127 0.004833
v 0.012732 0.223754 0.029452
v 0.012732 0.223754 0.004833
v -0.018975 0.255569 0.029452
v -0.018975 0.255569 0.004833
v 0.013098 0.255195 0.029452
v 0.013098 0.255195 0.004833
v -0.010886 0.255475 0.023243
v -0.010886 0.255475 0.011042
v 0.005009 0.255289 0.023243
v 0.005009 0.255289 0.011042
v -0.011577 0.196212 0.023243
v -0.011577 0.196212 0.011042
v 0.004318 0.196027 0.023243
v 0.004318 0.196027 0.011042
vt 0.0750 -1.9243
vt 0.0750 0.1779
vt -0.2955 0.1779
vt -0.2955 -1.9243
vt 1.2561 -1.9243
vt 1.2561 0.1779
vt 0.9889 0.1779
vt 0.9889 -1.9243
vt -0.7449 0.4512
vt -1.9243 0.4512
vt -1.6159 0.1718
vt -1.0812 0.1718
vt 2.2320 0.1859
vt 2.2320 2.2867
vt 1.7837 2.2786
vt 1.7837 0.1779
vt 0.8856 1.8273
vt -0.2955 1.8273
vt -0.2955 0.6237
vt 0.8856 0.6237
vt -0.7331 1.6548
vt -0.7331 2.8570
vt -1.0011 2.4629
vt -1.0011 2.0479
vt -1.6159 -1.3717
vt -1.0812 -1.3717
vt -1.1863 -1.0683
vt -1.5108 -1.0683
vt -1.9243 -1.6510
vt -0.7449 -1.6510
vt -1.2774 2.9243
vt -1.2774 2.3849
vt -1.0011 1.6548
vt -1.0011 2.5916
vt -1.5108 -0.5290
vt -1.1863 -0.5290
vt 0.8059 0.7088
vt 0.8059 0.7051
vt 0.8115 0.7051
vt 0.8115 0.7088
vt -0.2955 2.1116
vt 0.0291 2.1171
vt 0.0291 2.8572
vt -0.2955 2.8517
vt -1.1715 -0.7356
vt -1.4960 -0.7356
vt -1.5538 2.1942
vt -1.5538 1.6548
vt -1.2774 1.9875
vt -1.2774 2.9243
vt 2.2320 1.5815
vt 2.6398 1.5815
vt 2.6398 2.1115
vt 2.2320 2.1115
vt -1.5376 0.4512
vt -1.5376 1.6548
vt -1.9243 1.6548
vt -1.9243 0.4512
vt -0.8212 1.6548
vt -0.8212 0.4512
vt -0.4345 0.4512
vt -0.4345 1.6548
vt -1.5382 -1.9243
vt -1.1310 -1.9243
vt 2.6398 2.2551
vt 2.2320 2.2551
vt 0.3543 0.4720
vt -0.3507 0.4720
vt -0.2458 0.0785
vt 0.0994 -0.0003
vt 2.7482 1.5815
vt 2.7482 2.7851
vt 2.6398 2.2551
vt 2.6398 2.1115
vt -0.3261 0.4512
vt -0.3261 1.6548
vt -0.4345 1.1248
vt -0.4345 0.9812
vt 0.3422 -1.9243
vt 0.8627 -1.8143
vt 0.7609 -1.8143
vt 0.6184 2.1116
vt -0.0283 2.1116
vt -1.1002 1.3825
vt -1.1002 0.7235
vt 0.3422 0.1779
vt 2.3353 0.0195
vt 2.3353 -0.3110
vt 2.5295 -0.5207
vt 2.5295 -0.1902
vt 0.7609 -1.4836
vt 0.8627 -1.4836
vt 0.8072 0.7079
vt 0.8072 0.7066
vt 0.8090 0.7066
vt 0.8090 0.7079
vt -0.3175 1.8643
vt -0.4192 1.8643
vt -0.4192 1.6548
vt -0.3175 1.6548
vt 0.8627 -1.6049
vt 0.7609 -1.6049
vt 2.5295 -0.1899
vt 2.5295 -0.5207
vt 2.7236 -0.3112
vt 2.7236 0.0195
vt 1.7837 2.2786
vt 1.2561 2.2796
vt 1.3955 2.1752
vt 1.6443 2.1747
vt 1.9648 0.1779
vt 1.9648 -1.9243
vt 2.3353 -1.9243
vt 2.3353 0.1779
vt -1.5538 1.6548
vt -1.5538 2.8584
vt -1.9243 2.5257
vt -1.9243 1.9874
vt 1.2561 0.9563
vt 1.2561 1.4946
vt 0.9080 2.1243
vt 1.1564 2.1116
vt 1.1564 2.5246
vt 0.9080 2.5373
vt 1.2561 0.1788
vt 1.7837 0.1779
vt 1.6443 1.1843
vt 1.3955 1.1847
vt 0.8105 0.7051
vt 0.8105 0.7090
vt 0.8062 0.7090
vt 0.8062 0.7051
vt 2.3353 -0.5207
vt 2.3353 -1.5118
vt 2.7135 -1.9243
vt 2.7135 -0.9332
vt 2.6103 0.5904
vt 2.6103 1.5815
vt 2.2320 1.1690
vt 2.2320 0.1779
vt 1.4138 1.7770
vt 1.6625 1.7766
vt 1.9648 0.1779
vt 1.2561 0.1779
vt 1.4756 -1.4139
vt 1.7685 -1.4139
vt -0.0593 0.1779
vt 0.6494 0.1779
vt -1.1002 0.6919
vt -1.1002 1.4141
vt -0.2955 -1.6510
vt -0.2955 0.4512
vt 0.3221 2.6822
vt 0.0291 2.6822
vt 0.0291 2.1116
vt 0.3221 2.1116
vt 1.9648 -1.9243
vt 1.7685 -1.8035
vt 1.2561 -1.9243
vt 1.4756 -1.8035
vt 0.8062 0.7077
vt 0.8062 0.7062
vt 0.8112 0.7062
vt 0.8112 0.7077
vt 2.9243 0.8713
vt 2.6103 1.0931
vt 2.6103 0.3997
vt 2.9243 0.1779
vt 0.6150 2.6822
vt 0.3221 2.6822
vt 0.3221 2.1116
vt 0.6150 2.1116
vt -0.4192 2.5713
vt -0.7331 2.3488
vt -0.7331 1.6548
vt -0.4192 1.8772
vt 0.9543 0.0785
vt 0.6091 -0.0003
vt 0.6835 -0.3507
vt 1.0287 -0.2719
vt 0.1904 0.4720
vt 0.7315 0.4720
vt 0.5966 0.8464
vt 0.3253 0.8464
vt 1.0593 0.4720
vt 0.3543 0.4720
vt 0.1904 1.3507
vt -0.3507 1.3507
vt -0.2158 0.8310
vt 0.0555 0.8310
vt 1.0593 0.0174
vt 1.0593 -0.3507
vt 1.1277 -0.2579
vt 1.1277 -0.0755
vt 0.5966 1.2023
vt 0.3253 1.2023
vt -0.3202 -0.2719
vt 0.0250 -0.3507
vt -0.2158 0.4720
vt 0.0555 0.4720
vt 1.3507 1.1429
vt 1.2163 1.1429
vt 1.2163 0.4720
vt 1.3507 0.4720
vt 1.3306 0.0174
vt 1.2621 -0.0755
vt 1.3306 -0.3507
vt 1.2621 -0.2579
vt 1.1937 0.1998
vt 1.0593 0.1998
vt 1.0593 0.0174
vt 1.1937 0.0174
vt 0.7315 0.4720
vt 0.9067 0.4723
vt 0.9067 1.1487
vt 0.7315 1.1484
vt 1.0818 0.4720
vt 1.2163 0.4720
vt 1.2163 1.1486
vt 1.0818 1.1486
vt 0.9067 0.4723
vt 1.0818 1.1484
vt 0.9067 1.1487
vn -0.6611 -0.0000 -0.7503
vn 0.7222 -0.0000 -0.6917
vn 0.7246 -0.6892 0.0000
vn -0.8799 -0.0000 0.4751
vn 0.0000 -1.0000 0.0000
vn -1.0000 -0.0000 0.0000
vn 1.0000 0.0000 0.0000
vn 0.7246 0.6892 0.0000
vn 0.7779 -0.0000 -0.6284
vn 0.7779 -0.0000 0.6284
vn 0.0000 0.0000 -1.0000
vn -0.9330 0.3599 0.0000
vn 0.7633 -0.6461 0.0000
vn 0.0000 0.0000 1.0000
vn 0.2041 0.9790 0.0000
vn 0.0000 0.8217 0.5699
vn 0.0000 0.8217 -0.5699
vn 0.0000 1.0000 0.0000
vn -0.0417 0.3112 0.9494
vn -0.7222 -0.0000 -0.6917
vn -0.0000 0.6871 0.7265
vn 0.0000 -0.6871 -0.7265
vn -0.6611 -0.0000 0.7503
vn 0.7306 0.6828 0.0000
vn -0.7307 -0.6828 0.0000
vn 0.8799 -0.0000 0.4751
vn 0.0000 -0.8214 0.5704
vn -0.0000 0.8214 -0.5704
vn 0.8838 0.4680 0.0000
vn -0.0417 0.3112 -0.9494
vn -0.9503 0.3113 0.0000
vn 0.0117 0.9999 -0.0000
vn 0.9999 -0.0117 0.0000
vn -0.9999 0.0117 0.0000
vn 0.0116 0.9999 0.0000
usemtl None
s off
f 4/1/1 3/2/1 41/3/1 44/4/1
f 8/5/2 7/6/2 31/7/2 32/8/2
f 5/9/3 7/10/3 10/11/3 11/12/3
f 2/13/4 1/14/4 53/15/4 54/16/4
f 3/17/5 7/18/5 5/19/5 1/20/5
f 4/21/6 2/22/6 21/23/6 22/24/6
f 9/25/7 12/26/7 16/27/7 13/28/7
f 8/29/8 6/30/8 12/26/8 9/25/8
f 7/10/9 8/29/9 9/25/9 10/11/9
f 6/30/10 5/9/10 11/12/10 12/26/10
f 16/31/11 15/32/11 19/33/11 20/34/11
f 10/11/7 9/25/7 13/28/7 14/35/7
f 12/26/7 11/12/7 15/36/7 16/27/7
f 11/12/7 10/11/7 14/35/7 15/36/7
f 18/37/7 17/38/7 20/39/7 19/40/7
f 15/41/12 14/42/12 18/43/12 19/44/12
f 13/28/13 16/27/13 20/45/13 17/46/13
f 14/47/14 13/48/14 17/49/14 18/50/14
f 24/51/15 23/52/15 27/53/15 28/54/15
f 2/55/16 6/56/16 24/57/16 21/58/16
f 8/59/17 4/60/17 22/61/17 23/62/17
f 6/30/7 8/29/7 23/63/7 24/64/7
f 27/53/18 26/65/18 25/66/18 28/54/18
f 21/67/19 25/68/19 67/69/19 65/70/19
f 21/71/14 24/72/14 28/73/14 25/74/14
f 23/75/11 22/76/11 26/77/11 27/78/11
f 29/79/11 32/8/11 36/80/11 33/81/11
f 7/18/5 3/17/5 30/82/5 31/83/5
f 4/60/18 8/59/18 32/84/18 29/85/18
f 3/2/20 4/1/20 29/79/20 30/86/20
f 36/87/6 35/88/6 39/89/6 40/90/6
f 30/86/11 29/79/11 33/81/11 34/91/11
f 32/8/11 31/7/11 35/92/11 36/80/11
f 31/7/11 30/86/11 34/91/11 35/92/11
f 38/93/11 37/94/11 40/95/11 39/96/11
f 35/97/21 34/98/21 38/99/21 39/100/21
f 33/81/22 36/80/22 40/101/22 37/102/22
f 34/103/7 33/104/7 37/105/7 38/106/7
f 43/107/6 44/108/6 48/109/6 47/110/6
f 1/111/23 2/112/23 43/113/23 42/114/23
f 2/115/18 4/116/18 44/117/18 43/118/18
f 3/17/5 1/20/5 42/119/5 41/120/5
f 45/121/24 46/122/24 50/123/24 49/124/24
f 41/125/6 42/126/6 46/127/6 45/128/6
f 44/108/6 41/125/6 45/128/6 48/109/6
f 42/126/6 43/107/6 47/110/6 46/127/6
f 50/129/6 51/130/6 52/131/6 49/132/6
f 48/133/14 45/134/14 49/135/14 52/136/14
f 46/137/11 47/138/11 51/139/11 50/140/11
f 47/110/25 48/109/25 52/141/25 51/142/25
f 53/143/14 56/144/14 60/145/14 57/146/14
f 1/20/5 5/19/5 56/147/5 53/148/5
f 6/56/18 2/55/18 54/149/18 55/150/18
f 5/9/26 6/30/26 55/151/26 56/152/26
f 59/153/27 58/154/27 62/155/27 63/156/27
f 54/157/14 53/143/14 57/146/14 58/158/14
f 55/159/14 54/157/14 58/158/14 59/160/14
f 56/144/14 55/159/14 59/160/14 60/145/14
f 64/161/14 63/162/14 62/163/14 61/164/14
f 60/165/6 59/166/6 63/167/6 64/168/6
f 57/169/28 60/170/28 64/171/28 61/172/28
f 58/173/7 57/174/7 61/175/7 62/176/7
f 68/177/11 66/178/11 70/179/11 72/180/11
f 25/181/29 26/182/29 68/183/29 67/184/29
f 26/185/30 22/186/30 66/178/30 68/177/30
f 22/187/31 21/188/31 65/189/31 66/190/31
f 69/191/32 71/192/32 75/193/32 73/194/32
f 67/184/33 68/183/33 72/195/33 71/196/33
f 65/70/14 67/69/14 71/197/14 69/198/14
f 66/190/34 65/189/34 69/199/34 70/200/34
f 74/201/33 73/202/33 77/203/33 78/204/33
f 70/205/35 69/191/35 73/194/35 74/206/35
f 72/207/32 70/205/32 74/206/32 76/208/32
f 71/192/35 72/207/35 76/208/35 75/193/35
f 78/209/35 77/210/35 79/211/35 80/212/35
f 76/213/14 74/214/14 78/215/14 80/216/14
f 75/217/34 76/218/34 80/219/34 79/220/34
f 73/221/11 75/217/11 79/222/11 77/223/11
